HIERARCHY
ROOT Hips
{
	OFFSET 0.000000 0.000000 0.000000
	CHANNELS 6 Xposition Yposition Zposition Zrotation Yrotation Xrotation 
	JOINT LowerBack
	{
		OFFSET 0.000000 0.000000 0.000000
		CHANNELS 3 Zrotation Yrotation Xrotation
		JOINT Spine
		{
			OFFSET 0.028270 2.035590 -0.193380
			CHANNELS 3 Zrotation Yrotation Xrotation
			JOINT Spine1
			{
				OFFSET 0.056720 2.048850 -0.042750
				CHANNELS 3 Zrotation Yrotation Xrotation
				JOINT Neck
				{
					OFFSET 0.000000 0.000000 0.000000
					CHANNELS 3 Zrotation Yrotation Xrotation
					JOINT Neck1
					{
						OFFSET -0.054170 1.746240 0.172020
						CHANNELS 3 Zrotation Yrotation Xrotation
						JOINT Head
						{
							OFFSET 0.104070 1.761360 -0.123970
							CHANNELS 3 Zrotation Yrotation Xrotation
							End Site
							{
								OFFSET 0.000000 0.000000 0.000000
							}
						}
					}
				}
				JOINT LeftShoulder
				{
					OFFSET 0.000000 0.000000 0.000000
					CHANNELS 3 Zrotation Yrotation Xrotation
					JOINT LeftArm
					{
						OFFSET 3.362410 1.200890 -0.311210
						CHANNELS 3 Zrotation Yrotation Xrotation
						JOINT LeftForeArm
						{
							OFFSET 4.983000 -0.000000 -0.000000
							CHANNELS 3 Zrotation Yrotation Xrotation
							JOINT LeftHand
							{
								OFFSET 3.483560 -0.000000 -0.000000
								CHANNELS 3 Zrotation Yrotation Xrotation
								JOINT LeftFingerBase
								{
									OFFSET 0.000000 0.000000 0.000000
									CHANNELS 3 Zrotation Yrotation Xrotation
									JOINT LeftHandIndex1
									{
										OFFSET 0.715260 -0.000000 -0.000000
										CHANNELS 3 Zrotation Yrotation Xrotation
										End Site
										{
											OFFSET 0.000000 0.000000 0.000000
										}
									}
								}
								JOINT LThumb
								{
									OFFSET 0.000000 0.000000 0.000000
									CHANNELS 3 Zrotation Yrotation Xrotation
									End Site
									{
										OFFSET 0.000000 0.000000 0.000000
									}
								}
							}
						}
					}
				}
				JOINT RightShoulder
				{
					OFFSET 0.000000 0.000000 0.000000
					CHANNELS 3 Zrotation Yrotation Xrotation
					JOINT RightArm
					{
						OFFSET -3.136600 1.374050 -0.404650
						CHANNELS 3 Zrotation Yrotation Xrotation
						JOINT RightForeArm
						{
							OFFSET -5.241900 -0.000000 -0.000000
							CHANNELS 3 Zrotation Yrotation Xrotation
							JOINT RightHand
							{
								OFFSET -3.444170 -0.000000 -0.000000
								CHANNELS 3 Zrotation Yrotation Xrotation
								JOINT RightFingerBase
								{
									OFFSET 0.000000 0.000000 0.000000
									CHANNELS 3 Zrotation Yrotation Xrotation
									JOINT RightHandIndex1
									{
										OFFSET -0.622530 -0.000000 -0.000000
										CHANNELS 3 Zrotation Yrotation Xrotation
										End Site
										{
											OFFSET 0.000000 0.000000 0.000000
										}
									}
								}
								JOINT RThumb
								{
									OFFSET 0.000000 0.000000 0.000000
									CHANNELS 3 Zrotation Yrotation Xrotation
									End Site
									{
										OFFSET 0.000000 0.000000 0.000000
									}
								}
							}
						}
					}
				}
			}
		}
	}
}
}
MOTION
Frames: 9
Frame Time: 0.008333
2.897274 17.373784 0.611232 -178.324840 -61.197096 -171.593263 2.566105 -7.067375 -7.934069 1.631165 -7.278659 -4.135993 -0.522157 -7.430670 0.461359 14.462152 -18.369878 -9.304698 1.046510 0.115124 -0.375233 0.000000 0.000000 0.000000 23.357747 -2.495289 4.408335 7.902688 -35.007840 -45.405940 -0.689206 2.740786 -0.032477 6.285969 -2.154370 -0.147243 -0.306959 0.392615 -0.000000 0.000000 0.000000 0.000000 0.000000 0.000000 0.000000 2.769644 -17.955601 -2.583189 22.103699 32.992206 -6.858418 -178.644192 60.698257 179.885019 -11.335159 5.259606 -0.598510 0.177813 -0.666285 -0.000000 0.000000 0.000000 0.000000 0.000000 0.000000 0.000000 
2.880944 17.372023 0.607498 -178.680940 -61.030323 -171.276039 2.531667 -6.991978 -8.030396 1.659265 -7.209724 -4.079553 -0.368584 -7.381991 0.816054 13.994894 -18.917851 -9.638064 1.132680 0.129730 -0.468822 0.000000 0.000000 0.000000 23.556401 -0.094639 4.081666 6.534904 -38.190094 -45.654842 -0.347016 0.888436 -0.032487 6.046616 -3.080225 -0.194710 -0.270816 0.437793 -0.000000 0.000000 0.000000 0.000000 0.000000 0.000000 0.000000 2.106757 -18.340665 -2.618097 21.435091 31.653862 -7.697729 -178.607109 60.074009 179.885564 -11.296695 5.290890 -0.599733 0.177772 -0.666006 0.000000 0.000000 0.000000 0.000000 0.000000 0.000000 0.000000 
2.865309 17.368686 0.601428 -178.986521 -60.642816 -171.030261 2.577543 -6.836183 -8.134668 1.691221 -7.062702 -4.042240 -0.227329 -7.257009 1.145947 13.474927 -19.463127 -9.909036 1.178858 0.140075 -0.543705 0.000000 0.000000 0.000000 23.793767 2.236723 3.524356 2.723132 -39.810442 -39.859574 0.096902 -5.937597 -0.041042 5.907228 -1.786950 -0.121045 -0.232227 0.460939 -0.000000 0.000000 0.000000 0.000000 0.000000 0.000000 0.000000 1.401465 -18.577389 -2.574528 20.709123 30.161476 -8.596755 -178.605229 59.353936 179.885724 -11.286152 5.345833 -0.605240 0.182864 -0.669133 0.000000 0.000000 0.000000 0.000000 0.000000 0.000000 0.000000 
2.850235 17.363734 0.593504 -179.251333 -60.115102 -170.855730 2.733695 -6.585194 -8.250235 1.701389 -6.829421 -4.062641 -0.215090 -7.035451 1.289955 12.890835 -19.932758 -9.968731 1.183261 0.142467 -0.557060 0.000000 0.000000 0.000000 23.759229 3.602687 2.858716 -1.703298 -38.828672 -31.684157 0.552766 -16.370406 -0.056206 6.398404 0.592849 0.006193 -0.202860 0.480125 -0.000000 0.000000 0.000000 0.000000 0.000000 0.000000 0.000000 0.625346 -18.690269 -2.396442 20.102857 28.392051 -9.408370 -178.678347 58.544680 179.886253 -11.270352 5.402426 -0.611213 0.194821 -0.674388 0.000000 0.000000 0.000000 0.000000 0.000000 0.000000 0.000000 
2.836401 17.358119 0.584520 -179.463935 -59.542978 -170.758330 2.920007 -6.245162 -8.356684 1.661254 -6.512962 -4.145966 -0.380634 -6.715220 1.185025 12.337339 -20.239433 -9.771545 1.130703 0.134505 -0.494507 0.000000 0.000000 0.000000 23.523846 3.555414 2.180973 -5.619113 -35.312993 -25.943754 0.866595 -29.055747 -0.069833 6.996184 2.604521 0.130814 -0.164031 0.511246 -0.000000 0.000000 0.000000 0.000000 0.000000 0.000000 0.000000 -0.067567 -18.614303 -2.063402 19.557885 26.143489 -10.164034 -178.843391 57.622372 179.887614 -11.245155 5.453676 -0.616544 0.214427 -0.680168 -0.000000 0.000000 0.000000 0.000000 0.000000 0.000000 0.000000 
2.824251 17.352735 0.575912 -179.599722 -58.991894 -170.745403 3.071428 -5.862021 -8.408876 1.587919 -6.151977 -4.249345 -0.631328 -6.342631 0.946383 11.898108 -20.411566 -9.457716 1.032770 0.120160 -0.396788 0.000000 0.000000 0.000000 23.001048 2.739127 1.558773 -8.459026 -30.835813 -22.993099 0.897382 -41.958398 -0.074909 7.176641 3.336025 0.177846 -0.117919 0.547861 0.000000 0.000000 0.000000 0.000000 0.000000 0.000000 0.000000 -0.562982 -18.364369 -1.649516 18.950131 23.504632 -10.984285 -179.060791 56.628725 179.889744 -11.218250 5.504844 -0.621840 0.237985 -0.684576 0.000000 0.000000 0.000000 0.000000 0.000000 0.000000 0.000000 
2.813482 17.347587 0.569121 -179.656311 -58.507285 -170.812810 3.196478 -5.480594 -8.374409 1.515287 -5.788356 -4.323615 -0.865565 -5.967919 0.738420 11.583563 -20.570574 -9.204832 0.925792 0.106291 -0.316791 0.000000 0.000000 0.000000 22.201415 2.178007 1.003451 -10.433997 -27.034982 -21.670654 0.741534 -53.615228 -0.073871 6.996591 2.962990 0.147494 -0.075168 0.579999 -0.000000 0.000000 0.000000 0.000000 0.000000 0.000000 0.000000 -0.867362 -18.102846 -1.254963 18.267570 20.803952 -11.927138 -179.273666 55.672986 179.892353 -11.189455 5.556599 -0.626731 0.260064 -0.686184 0.000000 0.000000 0.000000 0.000000 0.000000 0.000000 0.000000 
2.803117 17.342264 0.564684 -179.654141 -58.126559 -170.941835 3.327415 -5.128648 -8.260728 1.461268 -5.450588 -4.355577 -1.048718 -5.621467 0.623322 11.340724 -20.778656 -9.069651 0.832191 0.095960 -0.271849 0.000000 0.000000 0.000000 21.343676 2.169516 0.506166 -12.221744 -24.167343 -21.115071 0.500249 -63.898683 -0.070182 6.608946 2.205877 0.093438 -0.039046 0.602914 -0.000000 0.000000 0.000000 0.000000 0.000000 0.000000 0.000000 -1.074082 -17.944903 -0.926400 17.614401 18.277979 -12.939373 -179.454368 54.836057 179.895284 -11.143060 5.589752 -0.628137 0.277589 -0.684429 0.000000 0.000000 0.000000 0.000000 0.000000 0.000000 0.000000 
2.792452 17.336689 0.562373 -179.623666 -57.874554 -171.105130 3.482982 -4.826827 -8.091605 1.432660 -5.160970 -4.349535 -1.176277 -5.325396 0.607208 11.114132 -21.041970 -9.048828 0.757359 0.089533 -0.261090 0.000000 0.000000 0.000000 20.581922 2.636748 0.067374 -14.255127 -21.894400 -20.893117 0.218461 -73.092016 -0.065272 6.110537 1.568681 0.051206 -0.010009 0.616473 -0.000000 0.000000 0.000000 0.000000 0.000000 0.000000 0.000000 -1.266910 -17.920928 -0.678273 17.083179 16.052134 -13.952977 -179.594826 54.155698 179.898440 -11.064599 5.578040 -0.622666 0.289439 -0.679142 0.000000 0.000000 0.000000 0.000000 0.000000 0.000000 0.000000 
